<?xml version="1.0" standalone="no"?>
<!DOCTYPE svg PUBLIC "-//W3C//DTD SVG 20010904//EN"
 "http://www.w3.org/TR/2001/REC-SVG-20010904/DTD/svg10.dtd">
<svg version="1.0" xmlns="http://www.w3.org/2000/svg"
 width="1400.000000pt" height="1400.000000pt" viewBox="0 0 1400.000000 1400.000000"
 preserveAspectRatio="xMidYMid meet">
<metadata>
Created by potrace 1.14, written by Peter Selinger 2001-2017
</metadata>
<g transform="translate(0.000000,1400.000000) scale(0.100000,-0.100000)"
fill="#000000" stroke="none">
<path d="M7140 10049 c-19 -5 -44 -14 -55 -19 -11 -5 -59 -21 -107 -36 -49
-16 -88 -33 -88 -39 0 -7 28 -26 63 -42 287 -140 357 -176 354 -179 -2 -2 -46
-16 -98 -31 -230 -66 -472 -228 -611 -411 -23 -31 -46 -59 -49 -62 -3 -3 -9
-12 -12 -20 -4 -8 -16 -28 -26 -45 -59 -91 -98 -180 -136 -307 -33 -107 -41
-159 -44 -265 -1 -38 -3 -42 -33 -48 -43 -9 -143 -59 -188 -93 -93 -70 -171
-185 -204 -302 -31 -109 -35 -261 -8 -345 3 -11 6 -22 7 -25 4 -22 31 -92 49
-125 22 -43 93 -135 113 -148 7 -4 18 -13 25 -20 25 -25 74 -54 134 -80 69
-30 224 -59 248 -45 9 5 16 5 16 0 0 -11 93 3 165 24 52 15 151 62 181 85 20
16 114 111 130 131 23 29 61 104 73 143 7 22 15 47 18 55 22 59 21 250 -1 333
-51 192 -190 341 -375 404 -63 21 -66 23 -67 55 0 26 16 125 30 183 44 182
188 390 356 515 89 66 242 137 336 156 6 1 26 5 43 9 17 4 31 4 31 0 0 -3 -49
-102 -110 -220 -70 -137 -105 -215 -97 -218 12 -4 167 44 225 70 18 8 42 15
52 16 14 1 36 32 79 117 219 428 261 511 261 521 0 10 -617 320 -635 318 -5 0
-26 -5 -45 -10z m-556 -1725 c51 -16 102 -48 124 -76 7 -9 19 -23 26 -31 56
-56 93 -229 71 -336 -15 -78 -62 -168 -107 -206 -136 -117 -335 -117 -451 0
-65 65 -93 137 -100 257 -8 131 22 234 90 309 48 53 105 83 177 95 16 2 31 6
33 7 7 8 90 -4 137 -19z"/>
<path d="M1760 8843 c-80 -7 -75 3 -75 -150 l0 -138 -50 -1 c-83 -1 -82 1 -83
-113 l-2 -101 38 -1 c20 -1 52 0 70 1 l32 2 0 -339 c0 -186 1 -349 4 -363 10
-67 19 -100 27 -100 5 0 9 -6 9 -14 0 -21 61 -82 106 -105 22 -12 72 -27 110
-34 73 -13 252 -15 272 -3 17 10 17 206 0 207 -7 0 -51 2 -98 3 -117 4 -149
16 -164 62 -5 17 -9 365 -7 605 l1 76 130 1 c71 0 134 4 140 7 15 10 13 205
-2 206 -7 0 -70 1 -140 1 l-128 0 -1 47 c0 25 -1 89 -2 141 l-2 95 -52 5 c-29
3 -53 2 -53 -2 0 -4 -10 -4 -22 0 -13 4 -39 6 -58 5z"/>
<path d="M2792 8549 c-108 -27 -187 -73 -269 -156 -40 -40 -73 -79 -73 -88 0
-8 -3 -15 -8 -15 -11 0 -45 -82 -67 -160 -33 -118 -20 -299 30 -421 42 -103
137 -219 210 -256 17 -9 38 -22 48 -31 9 -8 17 -12 17 -7 0 4 6 3 13 -2 33
-27 174 -57 257 -55 269 5 474 147 570 397 41 105 45 298 9 394 -6 14 -10 26
-9 26 3 0 -21 59 -31 75 -5 8 -16 30 -25 48 -27 53 -173 195 -204 197 -3 1
-19 8 -36 18 -107 57 -291 72 -432 36z m283 -230 c5 -5 16 -9 25 -9 26 0 114
-84 138 -133 45 -91 54 -161 41 -317 -3 -32 -58 -137 -87 -167 -164 -168 -440
-131 -532 72 -18 39 -24 62 -36 125 -6 32 -5 130 2 161 3 13 7 35 10 49 23
114 135 217 257 239 47 8 167 -5 182 -20z"/>
<path d="M4239 8557 c-13 -5 -35 -14 -49 -20 -14 -6 -27 -11 -30 -11 -14 -2
-110 -69 -110 -77 0 -5 -4 -9 -9 -9 -4 0 -9 23 -10 52 0 28 -3 53 -6 56 -7 8
-235 5 -243 -3 -10 -10 -10 -1148 0 -1161 7 -10 234 -12 244 -2 2 3 6 166 8
364 2 197 7 372 10 388 10 41 45 107 75 138 52 56 166 85 256 66 94 -20 156
-69 191 -153 25 -60 26 -78 29 -440 1 -187 3 -347 4 -355 1 -12 21 -15 121
-14 66 1 123 3 125 6 3 3 7 169 9 369 3 402 7 430 67 502 49 60 126 89 234 90
104 0 196 -67 236 -173 20 -52 22 -75 23 -415 1 -198 5 -365 8 -371 7 -10 232
-13 243 -3 6 6 7 694 1 739 -27 207 -95 317 -246 399 -41 22 -142 47 -200 50
-59 2 -187 -15 -205 -28 -5 -4 -26 -14 -45 -21 -58 -23 -124 -77 -170 -140
l-18 -25 -24 30 c-45 58 -104 108 -160 135 -32 16 -58 27 -58 25 0 -2 -20 3
-44 10 -50 15 -219 16 -257 2z"/>
<path d="M7743 8545 c-77 -28 -85 -33 -142 -88 l-47 -46 0 64 c0 36 -3 67 -6
70 -10 10 -240 10 -246 0 -9 -14 -9 -1137 -1 -1156 7 -14 26 -16 125 -13 64 2
119 5 122 9 3 3 7 164 8 358 2 334 3 355 23 409 38 98 109 144 236 152 40 2
77 6 82 9 6 4 8 105 4 240 -1 15 -9 18 -50 16 -27 -1 -76 -12 -108 -24z"/>
<path d="M8573 8554 c-65 -17 -127 -54 -174 -106 l-36 -40 -1 67 c0 37 -3 69
-5 72 -7 6 -232 8 -243 1 -11 -7 -13 -1153 -1 -1164 8 -9 235 -9 244 -1 3 3 5
156 6 339 0 336 6 399 39 463 45 85 107 115 248 119 l55 2 0 130 0 129 -40 1
c-22 1 -64 -5 -92 -12z"/>
<path d="M9305 8562 c-3 -3 -14 -7 -24 -9 -41 -6 -132 -46 -187 -82 -161 -103
-255 -286 -257 -496 -2 -188 53 -333 170 -451 64 -65 189 -135 263 -148 19 -3
44 -8 56 -10 22 -5 86 -9 94 -7 3 1 32 3 65 5 202 11 404 144 485 321 46 101
58 165 55 292 -2 101 -7 150 -15 161 -2 1 -3 5 -4 10 -4 26 -32 100 -42 112
-6 8 -19 30 -28 48 -23 44 -123 144 -177 175 -48 28 -132 63 -176 73 -36 9
-270 13 -278 6z m203 -227 c79 -15 172 -87 211 -163 51 -101 61 -259 22 -362
-70 -186 -275 -273 -452 -194 -125 56 -190 175 -190 348 0 69 1 79 16 141 20
80 92 167 171 206 68 32 137 40 222 24z"/>
<path d="M10148 8552 c-16 -2 -28 -8 -28 -13 0 -11 37 -134 110 -364 23 -71
43 -134 44 -140 2 -5 5 -17 8 -25 3 -8 19 -60 36 -115 17 -55 45 -145 62 -200
18 -55 33 -107 35 -115 2 -8 8 -27 14 -43 6 -15 13 -38 16 -50 2 -12 11 -42
20 -67 l16 -45 125 1 c69 1 130 6 135 11 8 8 82 261 94 323 2 8 4 15 5 15 1 0
3 7 5 16 1 9 11 43 20 75 9 33 19 66 21 74 11 50 78 296 81 299 6 8 12 -5 18
-38 3 -19 9 -41 14 -50 7 -14 27 -85 36 -131 2 -8 11 -42 21 -75 10 -33 19
-64 20 -70 1 -5 11 -44 22 -85 12 -41 33 -118 47 -170 14 -52 32 -117 40 -145
l14 -50 128 0 c90 0 130 3 136 12 4 6 29 83 56 170 27 87 54 172 59 188 6 17
24 75 41 130 16 55 42 138 56 185 15 47 37 119 50 160 13 41 39 127 59 190 20
63 36 121 36 128 0 9 -31 12 -124 12 -120 0 -124 -1 -129 -22 -3 -13 -15 -59
-27 -103 -11 -44 -23 -91 -26 -105 -3 -14 -12 -49 -21 -79 -8 -29 -16 -59 -17
-65 -2 -6 -6 -28 -11 -49 -4 -20 -11 -40 -16 -43 -5 -3 -7 -9 -4 -13 2 -5 -5
-39 -15 -77 -11 -38 -23 -82 -26 -98 -2 -16 -7 -32 -9 -36 -2 -3 -6 -17 -9
-31 -29 -132 -54 -195 -57 -141 -1 20 -1 22 -29 132 -12 47 -23 92 -25 100 -2
8 -18 69 -35 135 -30 114 -34 130 -44 173 -2 10 -11 42 -20 70 -8 29 -13 52
-10 52 3 0 0 9 -6 19 -5 11 -12 35 -14 53 -3 18 -5 33 -6 33 -1 0 -3 10 -5 21
-10 50 -25 74 -47 75 -95 4 -232 -1 -238 -8 -4 -4 -12 -28 -19 -53 -6 -25 -32
-121 -57 -215 -25 -93 -47 -177 -49 -185 -15 -67 -47 -188 -52 -200 -3 -8 -7
-21 -9 -29 -3 -13 -27 -111 -30 -121 -1 -3 -5 -20 -9 -37 -4 -18 -11 -33 -15
-33 -5 0 -16 30 -25 68 -8 37 -18 76 -21 87 -3 11 -7 30 -10 42 -2 12 -9 34
-14 48 -5 14 -7 25 -5 25 2 0 0 12 -6 28 -6 15 -12 34 -14 42 -9 41 -57 227
-62 240 -3 8 -7 22 -8 30 -1 8 -10 44 -20 80 -9 36 -19 72 -20 80 -2 8 -8 29
-14 47 -5 17 -7 33 -5 36 22 22 -135 41 -238 29z"/>
<path d="M5556 6421 c-1 -3 -2 -357 -2 -786 l1 -780 128 -1 c122 -1 127 0 128
20 0 12 1 362 2 779 1 496 -1 761 -8 766 -11 9 -244 11 -249 2z"/>
<path d="M6114 6416 c-2 -6 -3 -360 -1 -786 l2 -775 122 -1 c103 0 123 2 127
15 7 25 4 1551 -3 1553 -3 0 -59 2 -124 3 -79 1 -120 -2 -123 -9z"/>
<path d="M3368 6044 c-2 -1 -19 -5 -38 -7 -19 -3 -36 -6 -37 -7 -2 -2 -6 -3
-10 -5 -5 -1 -21 -5 -38 -10 -62 -17 -142 -69 -205 -135 -111 -115 -162 -248
-163 -425 -1 -110 3 -138 34 -235 37 -117 126 -236 222 -297 152 -96 392 -114
556 -40 25 11 49 20 54 19 4 -1 7 2 7 7 0 5 9 12 20 16 38 12 170 155 170 184
0 6 5 11 12 11 6 0 9 3 5 6 -3 4 3 24 14 46 29 57 21 68 -46 65 -31 -2 -58 0
-61 4 -2 4 -17 4 -32 -1 -16 -4 -36 -4 -45 1 -9 6 -18 6 -21 0 -3 -5 -14 -7
-24 -4 -12 3 -23 -5 -32 -24 -8 -15 -18 -32 -23 -38 -4 -5 -16 -22 -27 -37
-31 -41 -115 -77 -185 -80 -211 -7 -335 142 -335 401 0 70 20 162 40 187 7 8
10 14 6 14 -18 0 49 79 108 128 53 43 214 49 291 11 53 -27 111 -86 121 -124
7 -28 2 -27 139 -26 161 0 148 -2 141 24 -4 12 -9 30 -11 40 -11 47 -74 143
-125 191 -82 75 -154 110 -282 136 -48 9 -192 13 -200 4z"/>
<path d="M4635 6043 c-198 -34 -341 -138 -426 -308 -22 -44 -42 -91 -45 -105
-3 -14 -8 -38 -12 -55 -4 -16 -6 -77 -6 -135 0 -144 9 -190 58 -290 34 -71 58
-103 126 -167 42 -40 180 -122 180 -107 0 3 6 2 13 -4 6 -6 39 -15 72 -22 200
-39 404 14 553 145 31 27 112 127 112 138 0 3 9 25 20 51 12 25 21 49 22 53 0
5 5 19 10 33 14 37 22 105 21 196 -1 67 -9 110 -37 209 -15 52 -75 146 -131
202 -78 80 -178 132 -300 159 -33 7 -199 12 -230 7z m243 -254 c66 -30 135
-105 162 -175 31 -79 34 -242 7 -322 -75 -212 -336 -296 -515 -163 -79 58
-123 160 -128 297 -7 204 83 342 252 384 75 19 149 12 222 -21z"/>
<path d="M7020 6033 c-51 -13 -150 -56 -194 -85 -33 -22 -126 -116 -126 -127
0 -6 -4 -11 -10 -11 -5 0 -10 -5 -10 -12 0 -6 -6 -19 -14 -27 -15 -18 -53
-116 -61 -158 -3 -16 -7 -39 -10 -53 -10 -41 -7 -201 4 -256 48 -244 238 -430
470 -461 92 -13 277 4 306 27 6 5 12 8 15 8 34 -4 153 75 213 142 49 54 115
175 103 188 -4 4 -66 7 -138 8 -129 0 -130 0 -146 -25 -72 -117 -200 -159
-357 -117 -67 18 -139 79 -174 150 -24 49 -42 114 -33 119 4 2 202 3 439 2
493 -1 445 -11 445 94 -1 203 -54 346 -171 459 -54 51 -168 117 -221 126 -14
2 -47 9 -74 16 -64 14 -186 11 -256 -7z m284 -236 c75 -35 131 -93 152 -160 9
-30 15 -61 12 -68 -4 -11 -62 -14 -304 -14 -345 0 -327 -6 -275 99 43 88 112
146 197 164 66 15 159 6 218 -21z"/>
<path d="M8300 6031 c-36 -10 -78 -25 -95 -33 -16 -9 -45 -24 -63 -33 -44 -24
-144 -126 -168 -172 -10 -21 -24 -45 -29 -53 -12 -16 -27 -59 -46 -130 -15
-56 -19 -242 -7 -288 5 -19 12 -44 14 -56 7 -31 10 -38 22 -69 7 -16 12 -30
12 -32 0 -2 16 -31 35 -64 95 -161 265 -260 455 -265 45 -1 156 19 195 35 17
7 32 13 35 13 19 5 101 61 125 86 16 16 33 30 37 30 5 0 7 -55 5 -122 -6 -152
-28 -219 -93 -283 -60 -60 -128 -84 -224 -81 -90 4 -121 10 -178 39 -55 27
-93 63 -123 116 l-23 42 -121 -3 -120 -3 3 -39 c5 -62 55 -160 109 -214 81
-81 181 -130 318 -155 104 -20 260 -14 329 12 14 6 26 9 26 6 0 -2 32 12 72
32 130 66 213 169 264 328 22 70 23 74 24 713 l1 642 -125 0 c-89 0 -127 -4
-133 -12 -4 -7 -6 -39 -5 -70 1 -32 0 -58 -4 -58 -3 0 -26 18 -51 40 -50 44
-131 85 -203 104 -70 18 -195 17 -270 -3z m296 -231 c139 -48 222 -172 229
-337 10 -282 -214 -466 -456 -374 -91 34 -187 145 -205 234 -2 10 -6 28 -10
40 -10 32 -7 138 6 188 6 24 21 64 33 88 24 49 111 141 133 141 8 0 14 5 14
10 0 6 3 9 8 8 4 0 14 2 22 5 56 22 159 21 226 -3z"/>
<path d="M9795 6043 c-62 -9 -162 -43 -208 -73 -26 -16 -50 -30 -54 -30 -3 0
-32 -27 -64 -61 -80 -83 -141 -211 -156 -324 -6 -46 -4 -197 2 -225 3 -14 8
-36 10 -50 5 -39 40 -124 70 -176 27 -47 137 -164 154 -164 5 0 16 -6 23 -12
7 -7 34 -23 58 -35 108 -53 265 -70 395 -43 30 6 57 11 60 11 2 0 35 15 72 34
65 31 85 45 146 102 28 25 102 128 107 148 1 6 6 21 11 33 5 13 7 27 4 31 -2
5 -63 8 -135 7 l-131 -1 -22 -35 c-42 -67 -106 -106 -195 -118 -59 -8 -151 4
-182 23 -8 5 -21 10 -29 11 -7 2 -21 11 -32 22 -10 11 -22 22 -26 23 -30 13
-111 178 -98 199 2 3 199 5 439 5 431 0 437 0 442 20 9 38 11 136 3 188 -5 29
-10 62 -12 74 -2 12 -6 26 -10 29 -4 4 -7 14 -7 21 0 37 -68 150 -124 207
-125 126 -317 186 -511 159z m233 -248 c91 -41 155 -123 161 -205 l2 -35 -305
0 c-237 0 -306 3 -306 12 0 30 41 117 73 156 83 102 242 132 375 72z"/>
</g>
</svg>
