<svg width="50" height="50" viewBox="0 0 50 50" fill="none" xmlns="http://www.w3.org/2000/svg">
<circle cx="25" cy="25" r="25" fill="white"/>
<path d="M27.2871 33.7501C27.1004 33.7507 26.9158 33.7095 26.7471 33.6295C26.5784 33.5494 26.4297 33.4326 26.3121 33.2876L20.2746 25.7876C20.0907 25.5639 19.9902 25.2834 19.9902 24.9939C19.9902 24.7043 20.0907 24.4238 20.2746 24.2001L26.5246 16.7001C26.7368 16.4448 27.0417 16.2843 27.3722 16.2538C27.7027 16.2233 28.0318 16.3254 28.2871 16.5376C28.5424 16.7498 28.7029 17.0547 28.7334 17.3852C28.7638 17.7157 28.6618 18.0448 28.4496 18.3001L22.8621 25.0001L28.2621 31.7001C28.4149 31.8836 28.512 32.107 28.5419 32.3439C28.5717 32.5809 28.5331 32.8214 28.4305 33.0371C28.328 33.2527 28.1658 33.4345 27.9631 33.5609C27.7605 33.6872 27.5259 33.7529 27.2871 33.7501Z" fill="#707070"/>
</svg>
