<svg width="90" height="90" viewBox="0 0 90 90" fill="none" xmlns="http://www.w3.org/2000/svg">
<g filter="url(#filter0_d_801_6952)">
<g filter="url(#filter1_d_801_6952)">
<circle cx="45" cy="35" r="25" fill="white"/>
</g>
<path d="M47.2871 43.7496C47.1004 43.7502 46.9158 43.709 46.7471 43.629C46.5784 43.549 46.4297 43.4321 46.3121 43.2871L40.2746 35.7871C40.0907 35.5634 39.9902 35.2829 39.9902 34.9934C39.9902 34.7038 40.0907 34.4233 40.2746 34.1996L46.5246 26.6996C46.7368 26.4443 47.0417 26.2838 47.3722 26.2533C47.7027 26.2229 48.0318 26.3249 48.2871 26.5371C48.5424 26.7493 48.7029 27.0542 48.7334 27.3847C48.7638 27.7152 48.6618 28.0443 48.4496 28.2996L42.8621 34.9996L48.2621 41.6996C48.4149 41.8831 48.512 42.1065 48.5419 42.3435C48.5717 42.5804 48.5331 42.8209 48.4305 43.0366C48.328 43.2522 48.1658 43.434 47.9631 43.5604C47.7605 43.6867 47.5259 43.7524 47.2871 43.7496Z" fill="#707070"/>
</g>
<defs>
<filter id="filter0_d_801_6952" x="16" y="10" width="58" height="58" filterUnits="userSpaceOnUse" color-interpolation-filters="sRGB">
<feFlood flood-opacity="0" result="BackgroundImageFix"/>
<feColorMatrix in="SourceAlpha" type="matrix" values="0 0 0 0 0 0 0 0 0 0 0 0 0 0 0 0 0 0 127 0" result="hardAlpha"/>
<feOffset dy="4"/>
<feGaussianBlur stdDeviation="2"/>
<feComposite in2="hardAlpha" operator="out"/>
<feColorMatrix type="matrix" values="0 0 0 0 0 0 0 0 0 0 0 0 0 0 0 0 0 0 0.25 0"/>
<feBlend mode="normal" in2="BackgroundImageFix" result="effect1_dropShadow_801_6952"/>
<feBlend mode="normal" in="SourceGraphic" in2="effect1_dropShadow_801_6952" result="shape"/>
</filter>
<filter id="filter1_d_801_6952" x="0" y="0" width="90" height="90" filterUnits="userSpaceOnUse" color-interpolation-filters="sRGB">
<feFlood flood-opacity="0" result="BackgroundImageFix"/>
<feColorMatrix in="SourceAlpha" type="matrix" values="0 0 0 0 0 0 0 0 0 0 0 0 0 0 0 0 0 0 127 0" result="hardAlpha"/>
<feOffset dy="10"/>
<feGaussianBlur stdDeviation="10"/>
<feComposite in2="hardAlpha" operator="out"/>
<feColorMatrix type="matrix" values="0 0 0 0 0 0 0 0 0 0 0 0 0 0 0 0 0 0 0.1 0"/>
<feBlend mode="normal" in2="BackgroundImageFix" result="effect1_dropShadow_801_6952"/>
<feBlend mode="normal" in="SourceGraphic" in2="effect1_dropShadow_801_6952" result="shape"/>
</filter>
</defs>
</svg>
