<svg width="175" height="83" viewBox="0 0 175 83" fill="none" xmlns="http://www.w3.org/2000/svg">
<g clip-path="url(#clip0_466_1837)">
<path d="M91.7727 7.34302C91.7804 7.34668 91.7868 7.35272 91.791 7.36026C91.7951 7.3678 91.7967 7.37645 91.7956 7.38496C91.7944 7.39347 91.7906 7.40141 91.7847 7.40761C91.7788 7.41382 91.771 7.41799 91.7626 7.4195C85.4632 8.59816 80.8082 13.2892 79.4552 19.5694C79.3517 20.0508 79.2719 20.901 79.2156 22.1202C79.2134 22.1607 79.1931 22.1854 79.1549 22.1944C76.7413 22.7714 74.8946 24.3617 74.0849 26.6886C73.4948 28.3831 73.4464 30.0975 73.9398 31.8318C75.9271 38.8104 86.1223 38.446 88.0387 31.6901C89.0881 27.9899 87.5304 23.9512 83.8167 22.4936C83.4444 22.3474 82.9811 22.2473 82.5593 22.1247C82.5218 22.1142 82.5038 22.0898 82.5053 22.0516C82.7044 16.2797 87.0535 11.357 92.8265 10.5978C92.8782 10.5903 92.8921 10.6098 92.8681 10.6563L90.0429 16.174C90.0137 16.2302 90.0294 16.2486 90.0902 16.2291L93.6475 15.0516C93.6828 15.0396 93.7086 15.0171 93.7251 14.9841L97.6615 7.27104C97.6802 7.23355 97.6709 7.20544 97.6334 7.18669L89.8686 3.35716C89.8364 3.34142 89.803 3.33917 89.7685 3.35041L86.2111 4.52683C86.1414 4.55007 86.1395 4.57819 86.2055 4.61118L91.7727 7.34302Z" stroke="#E395B4" stroke-width="0.224936"/>
<path d="M24.2368 22.1562V18.6697C24.2368 18.6322 24.2181 18.6134 24.1806 18.6134H21.2846C21.2471 18.6134 21.2283 18.6322 21.2283 18.6697V22.1562C21.2283 22.1937 21.2096 22.2124 21.1721 22.2124H19.5694C19.5319 22.2124 19.5132 22.2312 19.5132 22.2686V24.5821C19.5132 24.6248 19.5346 24.6466 19.5773 24.6473L21.1743 24.6541C21.2111 24.6548 21.2294 24.6736 21.2294 24.7103C21.2279 27.3173 21.2261 29.9243 21.2238 32.5313C21.2193 36.8793 24.4314 36.7759 27.6862 36.651C27.7297 36.6495 27.7515 36.6267 27.7515 36.5824V34.2476C27.7515 34.2124 27.7338 34.1947 27.6986 34.1947C27.044 34.1925 26.3895 34.1809 25.7349 34.1599C24.6597 34.125 24.2582 33.7089 24.2503 32.6303C24.2308 29.9903 24.2282 27.3496 24.2425 24.7081C24.2425 24.6758 24.2586 24.6597 24.2908 24.6597L27.7087 24.6417C27.7387 24.6417 27.7537 24.6267 27.7537 24.5967L27.7503 22.2675C27.7503 22.2308 27.7316 22.2124 27.6941 22.2124H24.2931C24.2556 22.2124 24.2368 22.1937 24.2368 22.1562Z" stroke="#9596A0" stroke-width="0.224936"/>
<path d="M29.9635 26.8652C28.7241 30.7757 30.3583 35.4532 34.6624 36.6128C40.4006 38.1581 45.3446 33.5548 44.148 27.7492C43.282 23.553 39.3962 21.3138 35.3069 22.1416C32.7359 22.6623 30.7508 24.3819 29.9635 26.8652Z" stroke="#9596A0" stroke-width="0.224936"/>
<path d="M50.2731 23.7847V22.2686C50.2731 22.2311 50.2544 22.2124 50.2169 22.2124H47.349C47.3115 22.2124 47.2927 22.2311 47.2927 22.2686V36.6386C47.2927 36.6776 47.3122 36.6971 47.3512 36.6971L50.1888 36.6634C50.242 36.6626 50.269 36.6352 50.2697 36.5813C50.2735 33.9405 50.281 31.2998 50.2922 28.659C50.3024 26.0621 51.7734 24.2289 54.5761 24.6293C56.785 24.9442 57.5599 26.7392 57.5565 28.7636C57.5513 31.3804 57.552 33.9979 57.5588 36.6161C57.5588 36.6491 57.5753 36.6656 57.6083 36.6656H60.483C60.5182 36.6656 60.5358 36.6484 60.5358 36.6139C60.5343 34.0241 60.5351 31.4347 60.5381 28.8457C60.5403 26.8303 61.1611 25.0567 63.3993 24.6664C66.1086 24.194 67.7956 25.8889 67.7922 28.5668C67.7892 31.2525 67.8005 33.9394 67.826 36.6274C67.826 36.6611 67.8429 36.6784 67.8766 36.6791L70.713 36.696C70.7528 36.696 70.7726 36.6761 70.7726 36.6364C70.7726 33.8899 70.7659 31.1438 70.7524 28.3981C70.7389 25.7124 69.8245 23.3832 67.1624 22.3912C64.5363 21.4127 61.223 22.2067 59.8093 24.7811C59.8057 24.7875 59.8005 24.7928 59.7943 24.7965C59.788 24.8003 59.7809 24.8023 59.7736 24.8024C59.7663 24.8025 59.7591 24.8007 59.7528 24.7972C59.7464 24.7937 59.7411 24.7885 59.7373 24.7823C58.971 23.5001 57.9172 22.6611 56.5758 22.2652C54.4018 21.6242 51.9017 22.0324 50.3361 23.8083C50.3313 23.8138 50.3249 23.8176 50.3178 23.8194C50.3108 23.8212 50.3033 23.8207 50.2965 23.8182C50.2896 23.8156 50.2838 23.811 50.2796 23.8051C50.2754 23.7991 50.2732 23.792 50.2731 23.7847Z" stroke="#9596A0" stroke-width="0.224936"/>
<path d="M94.3122 24.2379L94.301 22.2675C94.301 22.2307 94.2826 22.2124 94.2459 22.2124H91.3802C91.3427 22.2124 91.324 22.2311 91.324 22.2686V36.624C91.324 36.672 91.348 36.696 91.396 36.696L94.2391 36.6622C94.2804 36.6622 94.301 36.642 94.301 36.6015C94.3025 35.063 94.3179 32.4342 94.3471 28.7153C94.3651 26.4457 95.4774 25.0398 97.8482 25.0848C98.0889 25.0893 98.3393 25.0822 98.5995 25.0634C98.6415 25.0604 98.6625 25.0379 98.6625 24.996V22.0448C98.6625 22.0111 98.6456 21.9942 98.6119 21.9942C96.7607 21.9799 95.3421 22.732 94.3561 24.2503C94.3534 24.2547 94.3494 24.2582 94.3446 24.2601C94.3397 24.262 94.3344 24.2623 94.3294 24.2609C94.3245 24.2595 94.3201 24.2564 94.317 24.2523C94.3139 24.2482 94.3122 24.2431 94.3122 24.2379Z" stroke="#9596A0" stroke-width="0.224936"/>
<path d="M104.398 24.2391V22.2686C104.398 22.2311 104.379 22.2124 104.342 22.2124H101.474C101.436 22.2124 101.418 22.2311 101.418 22.2686V36.606C101.418 36.6465 101.438 36.6668 101.478 36.6668L104.341 36.6701C104.381 36.6701 104.4 36.6503 104.4 36.6105C104.394 34.1377 104.397 31.6653 104.407 29.1933C104.418 26.2657 105.589 24.8408 108.661 25.0961C108.67 25.0969 108.679 25.0957 108.687 25.0928C108.696 25.0899 108.704 25.0852 108.71 25.0791C108.717 25.0729 108.722 25.0655 108.726 25.0572C108.73 25.0489 108.732 25.0399 108.732 25.0308L108.727 22.0437C108.727 22.01 108.71 21.9931 108.675 21.9931C106.833 21.9863 105.423 22.7395 104.444 24.2526C104.441 24.2573 104.437 24.2611 104.432 24.2631C104.427 24.2652 104.421 24.2654 104.416 24.2639C104.411 24.2623 104.406 24.259 104.403 24.2545C104.4 24.25 104.398 24.2446 104.398 24.2391Z" stroke="#9596A0" stroke-width="0.224936"/>
<path d="M110.935 26.8899C109.698 30.8296 111.395 35.5769 115.767 36.6521C119.888 37.6666 124.269 35.4903 125.112 31.1457C125.947 26.8314 123.649 22.7342 119.121 22.0673C115.525 21.5375 112.044 23.3517 110.935 26.8899Z" stroke="#9596A0" stroke-width="0.224936"/>
<path d="M137.173 26.0914L140.043 36.6083C140.053 36.6458 140.078 36.6649 140.117 36.6656L143.147 36.687C143.186 36.687 143.211 36.6686 143.222 36.6319L147.679 22.2709C147.691 22.2319 147.677 22.2124 147.637 22.2124H144.812C144.779 22.2124 144.759 22.2281 144.751 22.2596L141.793 33.6841C141.791 33.6902 141.788 33.6957 141.783 33.6996C141.778 33.7035 141.772 33.7056 141.766 33.7056C141.76 33.7056 141.754 33.7035 141.749 33.6996C141.744 33.6957 141.741 33.6902 141.74 33.6841L138.835 22.272C138.825 22.2323 138.8 22.2124 138.758 22.2124H135.75C135.716 22.2124 135.695 22.2285 135.687 22.2608L132.652 33.7404C132.651 33.7465 132.647 33.7518 132.642 33.7557C132.637 33.7595 132.631 33.7616 132.624 33.7616C132.618 33.7616 132.612 33.7595 132.607 33.7557C132.602 33.7518 132.598 33.7465 132.596 33.7404L129.618 22.2855C129.605 22.2368 129.574 22.2124 129.524 22.2124H126.616C126.61 22.2125 126.604 22.214 126.598 22.2169C126.593 22.2198 126.588 22.2239 126.584 22.229C126.581 22.2341 126.578 22.2401 126.577 22.2464C126.576 22.2526 126.576 22.2591 126.578 22.2653L131.053 36.6049C131.065 36.6447 131.092 36.6645 131.134 36.6645H134.147C134.199 36.6645 134.231 36.6398 134.245 36.5903L137.114 26.0914C137.116 26.085 137.12 26.0794 137.125 26.0754C137.13 26.0714 137.137 26.0692 137.143 26.0692C137.15 26.0692 137.156 26.0714 137.162 26.0754C137.167 26.0794 137.171 26.085 137.173 26.0914Z" stroke="#9596A0" stroke-width="0.224936"/>
<path d="M72.5419 48.8055C72.5419 48.7974 72.5387 48.7897 72.533 48.784C72.5273 48.7783 72.5196 48.7751 72.5116 48.7751H69.5919C69.5838 48.7751 69.5761 48.7783 69.5704 48.784C69.5647 48.7897 69.5615 48.7974 69.5615 48.8055V68.1814C69.5615 68.1895 69.5647 68.1972 69.5704 68.2029C69.5761 68.2086 69.5838 68.2118 69.5919 68.2118H72.5116C72.5196 68.2118 72.5273 68.2086 72.533 68.2029C72.5387 68.1972 72.5419 68.1895 72.5419 68.1814V48.8055Z" stroke="#9596A0" stroke-width="0.224936"/>
<path d="M79.4755 48.8099C79.4755 48.8021 79.4724 48.7947 79.4669 48.7892C79.4615 48.7837 79.454 48.7806 79.4463 48.7806H76.5356C76.5278 48.7806 76.5204 48.7837 76.5149 48.7892C76.5094 48.7947 76.5063 48.8021 76.5063 48.8099V68.1813C76.5063 68.1891 76.5094 68.1965 76.5149 68.202C76.5204 68.2075 76.5278 68.2106 76.5356 68.2106H79.4463C79.454 68.2106 79.4615 68.2075 79.4669 68.202C79.4724 68.1965 79.4755 68.1891 79.4755 68.1813V48.8099Z" stroke="#9596A0" stroke-width="0.224936"/>
<path d="M40.907 53.8137C34.0453 55.81 34.4817 67.2041 41.8123 68.3209C45.4642 68.8765 48.6369 67.2806 49.7762 63.6805C49.7874 63.646 49.7747 63.6287 49.7379 63.6287H46.6496C46.6068 63.6287 46.5772 63.6482 46.5607 63.6872C45.8957 65.2843 44.6701 66.0224 42.8841 65.9017C41.0127 65.7746 39.8666 64.6443 39.3763 62.8729C38.67 60.3233 39.293 56.6523 42.4017 56.1046C44.1809 55.792 45.8893 56.4758 46.5393 58.2404C46.5513 58.2734 46.5746 58.2895 46.6091 58.2888L49.7154 58.2854C49.7537 58.2854 49.7679 58.2666 49.7582 58.2291C49.1913 56.0461 47.7259 54.5053 45.5867 53.853C44.0189 53.3747 42.459 53.3615 40.907 53.8137Z" stroke="#9596A0" stroke-width="0.224936"/>
<path d="M51.9614 62.3893C53.1839 70.6512 65.3293 70.3014 66.4855 62.1914C67.1963 57.2079 63.7885 53.276 58.7567 53.5178C53.9183 53.7507 51.2877 57.8411 51.9614 62.3893Z" stroke="#9596A0" stroke-width="0.224936"/>
<path d="M82.7382 58.6025C81.5269 63.2654 83.9742 68.1409 89.1028 68.4198C92.3239 68.5953 95.1344 67.1028 96.2501 63.9582C96.2606 63.9268 96.2494 63.911 96.2164 63.911L93.0841 63.9076C93.0681 63.9073 93.0522 63.9115 93.0384 63.9199C93.0247 63.9283 93.0136 63.9404 93.0065 63.9549C92.4884 65.0008 91.6997 65.6201 90.6402 65.8128C87.9725 66.2965 85.8446 64.8355 85.5443 62.1306C85.5437 62.1245 85.5443 62.1183 85.5462 62.1124C85.548 62.1066 85.5511 62.1012 85.5551 62.0966C85.5591 62.0921 85.5641 62.0884 85.5696 62.086C85.5751 62.0835 85.581 62.0822 85.587 62.0823H96.5234C96.5399 62.0824 96.5558 62.0764 96.5682 62.0654C96.5806 62.0544 96.5887 62.0392 96.5909 62.0227C97.0216 58.4001 95.6698 55.0215 91.9932 53.8586C88.0759 52.6204 83.8078 54.484 82.7382 58.6025Z" stroke="#9596A0" stroke-width="0.224936"/>
<path d="M110.467 66.1356C110.479 66.9611 110.475 67.787 110.456 68.6132C110.378 71.7623 108.035 73.284 105.05 72.5654C103.731 72.2482 102.817 71.489 102.308 70.2879C102.293 70.2534 102.268 70.2361 102.23 70.2361H99.4251C99.3944 70.2361 99.3809 70.2511 99.3846 70.2811C99.8041 73.771 103.003 75.223 106.137 75.3321C109.489 75.4479 112.272 73.8655 113.218 70.5679C113.4 69.9351 113.492 69.3653 113.494 68.8584C113.513 63.8349 113.517 58.8105 113.504 53.7855C113.504 53.7495 113.486 53.7315 113.45 53.7315H110.54C110.492 53.7315 110.469 53.7555 110.469 53.8035L110.477 55.7593C110.478 55.7647 110.476 55.77 110.473 55.7745C110.47 55.779 110.466 55.7824 110.461 55.7842C110.456 55.786 110.45 55.7861 110.445 55.7844C110.44 55.7828 110.435 55.7795 110.432 55.775C107.65 52.3695 102.141 52.924 99.8502 56.5184C97.1476 60.7574 99.0135 67.6449 104.564 68.3681C106.832 68.6627 108.921 67.8788 110.413 66.1164C110.448 66.0745 110.466 66.0808 110.467 66.1356Z" stroke="#9596A0" stroke-width="0.224936"/>
<path d="M119.613 62.0823H130.545C130.558 62.0822 130.571 62.0774 130.581 62.0687C130.591 62.06 130.598 62.0481 130.6 62.035C131.135 58.2977 129.492 54.7415 125.651 53.7506C124.464 53.4447 123.275 53.4099 122.084 53.646C117.73 54.5098 115.897 58.4642 116.594 62.5659C117.195 66.0906 120.011 68.4142 123.576 68.4288C126.648 68.4423 129.218 66.9319 130.27 63.9594C130.282 63.9264 130.271 63.9099 130.236 63.9099H127.12C127.086 63.9099 127.06 63.9252 127.044 63.956C126.454 65.0972 125.514 65.7367 124.222 65.8747C121.737 66.139 119.799 64.6105 119.563 62.1362C119.56 62.1003 119.576 62.0823 119.613 62.0823Z" stroke="#9596A0" stroke-width="0.224936"/>
<path d="M76.7639 30.562C77.4241 35.6545 84.3037 35.4273 85.1619 30.5879C85.5105 28.6253 85.0415 26.4198 83.2702 25.2591C81.4369 24.0591 78.7085 24.482 77.4882 26.3591C76.6885 27.5906 76.5705 29.0785 76.7639 30.562Z" stroke="#E395B4" stroke-width="0.224936"/>
<path d="M34.0915 33.3051C35.1712 34.2825 36.7941 34.5265 38.1348 34.1014C39.7239 33.5975 40.7924 32.3176 41.1028 30.6767C41.3885 29.1607 41.1916 27.4984 40.2885 26.2523C38.8017 24.1986 35.5008 23.9905 33.78 25.9261C32.1177 27.7942 32.2066 31.5956 34.0915 33.3051Z" stroke="#9596A0" stroke-width="0.224936"/>
<path d="M113.911 31.536C115.247 35.3767 120.578 35.0911 121.874 31.4527C122.453 29.8242 122.3 27.6603 121.259 26.2522C119.269 23.5541 115.02 24.23 113.906 27.387C113.471 28.6185 113.496 30.3438 113.911 31.536Z" stroke="#9596A0" stroke-width="0.224936"/>
<path d="M55.3522 58.5643C53.9756 61.8202 55.5873 66.4697 59.8633 65.7465C61.8146 65.417 63.0608 63.9717 63.406 62.0654C63.6985 60.456 63.3599 58.4485 62.1655 57.3035C60.0927 55.3185 56.4983 55.8527 55.3522 58.5643Z" stroke="#9596A0" stroke-width="0.224936"/>
<path d="M93.5285 59.6203C93.4655 57.0887 91.1318 55.712 88.7925 56.1068C86.9817 56.4127 85.8166 57.8433 85.5748 59.6147C85.5703 59.6477 85.5849 59.6642 85.6186 59.6642H93.4858C93.515 59.6642 93.5292 59.6495 93.5285 59.6203Z" stroke="#9596A0" stroke-width="0.224936"/>
<path d="M103.267 64.7039C105.44 66.7013 108.992 65.8882 110.054 63.1305C111.076 60.4841 110.174 57.0235 107.149 56.2508C104.411 55.5512 102.103 57.4711 101.77 60.1489C101.564 61.8011 101.995 63.5353 103.267 64.7039Z" stroke="#9596A0" stroke-width="0.224936"/>
<path d="M127.551 59.6192C127.481 57.1011 125.177 55.7233 122.842 56.1012C121.021 56.3959 119.834 57.831 119.598 59.6158C119.594 59.6481 119.608 59.6642 119.641 59.6642H127.507C127.537 59.6642 127.552 59.6492 127.551 59.6192Z" stroke="#9596A0" stroke-width="0.224936"/>
<path d="M91.7724 7.34302L86.2053 4.61118C86.1393 4.57819 86.1412 4.55007 86.2109 4.52683L89.7683 3.35041C89.8027 3.33917 89.8361 3.34142 89.8684 3.35716L97.6331 7.18669C97.6706 7.20544 97.68 7.23355 97.6612 7.27104L93.7249 14.9841C93.7084 15.0171 93.6825 15.0396 93.6473 15.0516L90.0899 16.2291C90.0292 16.2486 90.0134 16.2302 90.0427 16.174L92.8679 10.6563C92.8919 10.6098 92.878 10.5903 92.8263 10.5978C87.0533 11.357 82.7042 16.2797 82.5051 22.0516C82.5036 22.0898 82.5216 22.1142 82.5591 22.1247C82.9808 22.2473 83.4442 22.3474 83.8165 22.4936C87.5301 23.9512 89.0878 27.9899 88.0385 31.6901C86.122 38.446 75.9268 38.8104 73.9395 31.8318C73.4462 30.0975 73.4945 28.3831 74.0846 26.6886C74.8944 24.3617 76.7411 22.7714 79.1547 22.1944C79.1929 22.1854 79.2131 22.1607 79.2154 22.1202C79.2716 20.901 79.3515 20.0508 79.4549 19.5694C80.8079 13.2892 85.463 8.59816 91.7623 7.4195C91.7708 7.41799 91.7785 7.41382 91.7844 7.40761C91.7904 7.40141 91.7942 7.39347 91.7953 7.38496C91.7964 7.37645 91.7948 7.3678 91.7907 7.36026C91.7866 7.35272 91.7802 7.34668 91.7724 7.34302ZM76.7636 30.562C77.4238 35.6546 84.3034 35.4274 85.1616 30.5879C85.5102 28.6253 85.0412 26.4198 83.2699 25.2592C81.4366 24.0591 78.7082 24.482 77.4879 26.3591C76.6882 27.5906 76.5701 29.0786 76.7636 30.562Z" fill="#D90368"/>
<path d="M24.2931 22.2124H27.6941C27.7316 22.2124 27.7503 22.2308 27.7503 22.2675L27.7537 24.5967C27.7537 24.6267 27.7387 24.6417 27.7087 24.6417L24.2908 24.6597C24.2586 24.6597 24.2425 24.6758 24.2425 24.7081C24.2282 27.3496 24.2308 29.9903 24.2503 32.6303C24.2582 33.7089 24.6597 34.125 25.7349 34.1599C26.3895 34.1809 27.044 34.1925 27.6986 34.1947C27.7338 34.1947 27.7515 34.2124 27.7515 34.2476V36.5824C27.7515 36.6267 27.7297 36.6495 27.6862 36.651C24.4314 36.7759 21.2193 36.8793 21.2238 32.5313C21.2261 29.9243 21.2279 27.3173 21.2294 24.7103C21.2294 24.6736 21.2111 24.6548 21.1743 24.6541L19.5773 24.6473C19.5346 24.6466 19.5132 24.6248 19.5132 24.5821V22.2686C19.5132 22.2312 19.5319 22.2124 19.5694 22.2124H21.1721C21.2096 22.2124 21.2283 22.1937 21.2283 22.1562V18.6697C21.2283 18.6322 21.2471 18.6134 21.2846 18.6134H24.1806C24.2181 18.6134 24.2368 18.6322 24.2368 18.6697V22.1562C24.2368 22.1937 24.2556 22.2124 24.2931 22.2124Z" fill="#2B2D40"/>
<path d="M34.6624 36.6128C30.3583 35.4532 28.7241 30.7757 29.9635 26.8652C30.7508 24.3819 32.7359 22.6623 35.3069 22.1416C39.3962 21.3138 43.282 23.553 44.148 27.7492C45.3446 33.5548 40.4006 38.1581 34.6624 36.6128ZM34.0911 33.3051C35.1708 34.2825 36.7937 34.5265 38.1343 34.1014C39.7235 33.5975 40.7919 32.3176 41.1024 30.6767C41.388 29.1607 41.1912 27.4984 40.2881 26.2523C38.8013 24.1986 35.5003 23.9905 33.7796 25.9261C32.1173 27.7942 32.2061 31.5956 34.0911 33.3051Z" fill="#2B2D40"/>
<path d="M50.2731 23.7847C50.2732 23.792 50.2754 23.7991 50.2796 23.8051C50.2838 23.811 50.2896 23.8156 50.2965 23.8182C50.3033 23.8207 50.3108 23.8212 50.3178 23.8194C50.3249 23.8176 50.3313 23.8138 50.3361 23.8083C51.9017 22.0324 54.4018 21.6242 56.5758 22.2652C57.9172 22.6611 58.971 23.5001 59.7373 24.7823C59.7411 24.7885 59.7464 24.7937 59.7528 24.7972C59.7591 24.8007 59.7663 24.8025 59.7736 24.8024C59.7809 24.8023 59.788 24.8003 59.7943 24.7965C59.8005 24.7928 59.8057 24.7875 59.8093 24.7811C61.223 22.2067 64.5363 21.4127 67.1624 22.3912C69.8245 23.3832 70.7389 25.7124 70.7524 28.3981C70.7659 31.1438 70.7726 33.8899 70.7726 36.6364C70.7726 36.6761 70.7528 36.696 70.713 36.696L67.8766 36.6791C67.8429 36.6784 67.826 36.6611 67.826 36.6274C67.8005 33.9394 67.7892 31.2525 67.7922 28.5668C67.7956 25.8889 66.1086 24.194 63.3993 24.6664C61.1611 25.0567 60.5403 26.8303 60.5381 28.8457C60.5351 31.4347 60.5343 34.0241 60.5358 36.6139C60.5358 36.6484 60.5182 36.6656 60.483 36.6656H57.6083C57.5753 36.6656 57.5588 36.6491 57.5588 36.6161C57.552 33.9979 57.5513 31.3804 57.5565 28.7636C57.5599 26.7392 56.785 24.9442 54.5761 24.6293C51.7734 24.2289 50.3024 26.0621 50.2922 28.659C50.281 31.2998 50.2735 33.9405 50.2697 36.5813C50.269 36.6352 50.242 36.6626 50.1888 36.6634L47.3512 36.6971C47.3122 36.6971 47.2927 36.6776 47.2927 36.6386V22.2686C47.2927 22.2311 47.3115 22.2124 47.349 22.2124H50.2169C50.2544 22.2124 50.2731 22.2311 50.2731 22.2686V23.7847Z" fill="#2B2D40"/>
<path d="M94.3122 24.2379C94.3122 24.2431 94.3139 24.2482 94.317 24.2523C94.3201 24.2564 94.3245 24.2595 94.3294 24.2609C94.3344 24.2623 94.3397 24.262 94.3446 24.2601C94.3494 24.2582 94.3534 24.2547 94.3561 24.2503C95.3421 22.732 96.7607 21.9799 98.6119 21.9942C98.6456 21.9942 98.6625 22.0111 98.6625 22.0448V24.996C98.6625 25.0379 98.6415 25.0604 98.5995 25.0634C98.3393 25.0822 98.0889 25.0893 97.8482 25.0848C95.4774 25.0398 94.3651 26.4457 94.3471 28.7153C94.3179 32.4342 94.3025 35.063 94.301 36.6015C94.301 36.642 94.2804 36.6622 94.2391 36.6622L91.396 36.696C91.348 36.696 91.324 36.672 91.324 36.624V22.2686C91.324 22.2311 91.3427 22.2124 91.3802 22.2124H94.2459C94.2826 22.2124 94.301 22.2307 94.301 22.2675L94.3122 24.2379Z" fill="#2B2D40"/>
<path d="M104.398 24.2391C104.398 24.2446 104.4 24.25 104.403 24.2545C104.406 24.259 104.411 24.2623 104.416 24.2639C104.421 24.2654 104.427 24.2652 104.432 24.2631C104.437 24.2611 104.441 24.2573 104.444 24.2526C105.423 22.7395 106.833 21.9863 108.675 21.9931C108.71 21.9931 108.727 22.01 108.727 22.0437L108.732 25.0308C108.732 25.0399 108.73 25.0489 108.726 25.0572C108.722 25.0655 108.717 25.0729 108.71 25.0791C108.704 25.0852 108.696 25.0899 108.687 25.0928C108.679 25.0957 108.67 25.0969 108.661 25.0961C105.589 24.8408 104.418 26.2657 104.407 29.1933C104.397 31.6653 104.394 34.1377 104.4 36.6105C104.4 36.6503 104.381 36.6701 104.341 36.6701L101.478 36.6668C101.438 36.6668 101.418 36.6465 101.418 36.606V22.2686C101.418 22.2311 101.436 22.2124 101.474 22.2124H104.342C104.379 22.2124 104.398 22.2311 104.398 22.2686V24.2391Z" fill="#2B2D40"/>
<path d="M115.767 36.6522C111.395 35.577 109.698 30.8297 110.935 26.89C112.044 23.3517 115.525 21.5376 119.121 22.0674C123.649 22.7343 125.947 26.8315 125.112 31.1458C124.269 35.4904 119.888 37.6667 115.767 36.6522ZM113.911 31.536C115.247 35.3768 120.578 35.0911 121.874 31.4528C122.453 29.8243 122.3 27.6604 121.259 26.2523C119.269 23.5542 115.02 24.2301 113.906 27.3871C113.471 28.6186 113.496 30.3439 113.911 31.536Z" fill="#2B2D40"/>
<path d="M137.173 26.0914C137.171 26.085 137.167 26.0794 137.162 26.0754C137.156 26.0714 137.15 26.0692 137.143 26.0692C137.137 26.0692 137.13 26.0714 137.125 26.0754C137.12 26.0794 137.116 26.085 137.114 26.0914L134.245 36.5903C134.231 36.6398 134.199 36.6645 134.147 36.6645H131.134C131.092 36.6645 131.065 36.6447 131.053 36.6049L126.578 22.2653C126.576 22.2591 126.576 22.2526 126.577 22.2464C126.578 22.2401 126.581 22.2341 126.584 22.229C126.588 22.2239 126.593 22.2198 126.598 22.2169C126.604 22.214 126.61 22.2125 126.616 22.2124H129.524C129.574 22.2124 129.605 22.2368 129.618 22.2855L132.596 33.7404C132.598 33.7465 132.602 33.7518 132.607 33.7557C132.612 33.7595 132.618 33.7616 132.624 33.7616C132.631 33.7616 132.637 33.7595 132.642 33.7557C132.647 33.7518 132.651 33.7465 132.652 33.7404L135.687 22.2608C135.695 22.2285 135.716 22.2124 135.75 22.2124H138.758C138.8 22.2124 138.825 22.2323 138.835 22.272L141.74 33.6841C141.741 33.6902 141.744 33.6957 141.749 33.6996C141.754 33.7035 141.76 33.7056 141.766 33.7056C141.772 33.7056 141.778 33.7035 141.783 33.6996C141.788 33.6957 141.791 33.6902 141.793 33.6841L144.751 22.2596C144.759 22.2281 144.779 22.2124 144.812 22.2124H147.637C147.677 22.2124 147.691 22.2319 147.679 22.2709L143.222 36.6319C143.211 36.6686 143.186 36.687 143.147 36.687L140.117 36.6656C140.078 36.6649 140.053 36.6458 140.043 36.6083L137.173 26.0914Z" fill="#2B2D40"/>
<path d="M72.5113 48.7751H69.5916C69.5749 48.7751 69.5613 48.7887 69.5613 48.8055V68.1814C69.5613 68.1982 69.5749 68.2118 69.5916 68.2118H72.5113C72.5281 68.2118 72.5417 68.1982 72.5417 68.1814V48.8055C72.5417 48.7887 72.5281 48.7751 72.5113 48.7751Z" fill="#2B2D40"/>
<path d="M79.4463 48.7807H76.5356C76.5194 48.7807 76.5063 48.7938 76.5063 48.81V68.1814C76.5063 68.1976 76.5194 68.2107 76.5356 68.2107H79.4463C79.4624 68.2107 79.4755 68.1976 79.4755 68.1814V48.81C79.4755 48.7938 79.4624 48.7807 79.4463 48.7807Z" fill="#2B2D40"/>
<path d="M41.8123 68.3209C34.4817 67.2041 34.0453 55.81 40.907 53.8137C42.459 53.3615 44.0189 53.3747 45.5867 53.853C47.7259 54.5053 49.1913 56.0461 49.7582 58.2291C49.7679 58.2666 49.7537 58.2854 49.7154 58.2854L46.6091 58.2888C46.5746 58.2895 46.5513 58.2734 46.5393 58.2404C45.8893 56.4758 44.1809 55.792 42.4017 56.1046C39.293 56.6523 38.67 60.3233 39.3763 62.8729C39.8666 64.6443 41.0127 65.7746 42.8841 65.9017C44.6701 66.0224 45.8957 65.2843 46.5607 63.6872C46.5772 63.6482 46.6068 63.6287 46.6496 63.6287H49.7379C49.7747 63.6287 49.7874 63.646 49.7762 63.6805C48.6369 67.2806 45.4642 68.8765 41.8123 68.3209Z" fill="#2B2D40"/>
<path d="M66.4855 62.1914C65.3293 70.3014 53.1839 70.6512 51.9614 62.3893C51.2877 57.8411 53.9183 53.7507 58.7567 53.5178C63.7885 53.276 67.1963 57.2079 66.4855 62.1914ZM55.3523 58.5643C53.9757 61.8202 55.5873 66.4696 59.8634 65.7465C61.8147 65.4169 63.0608 63.9717 63.4061 62.0654C63.6985 60.456 63.36 58.4484 62.1656 57.3035C60.0928 55.3185 56.4983 55.8527 55.3523 58.5643Z" fill="#2B2D40"/>
<path d="M89.1028 68.4198C83.9742 68.1409 81.5269 63.2654 82.7382 58.6025C83.8078 54.484 88.076 52.6204 91.9932 53.8586C95.6698 55.0215 97.0216 58.4001 96.5909 62.0227C96.5887 62.0392 96.5806 62.0544 96.5682 62.0654C96.5558 62.0764 96.5399 62.0824 96.5234 62.0823H85.587C85.581 62.0822 85.5751 62.0835 85.5696 62.086C85.5641 62.0884 85.5591 62.0921 85.5551 62.0966C85.5511 62.1012 85.548 62.1066 85.5462 62.1124C85.5443 62.1183 85.5437 62.1245 85.5443 62.1306C85.8446 64.8355 87.9725 66.2965 90.6402 65.8128C91.6997 65.6201 92.4884 65.0008 93.0065 63.9549C93.0136 63.9404 93.0247 63.9283 93.0384 63.9199C93.0522 63.9115 93.0681 63.9073 93.0841 63.9076L96.2164 63.911C96.2494 63.911 96.2606 63.9268 96.2501 63.9582C95.1344 67.1028 92.3239 68.5953 89.1028 68.4198ZM93.5284 59.6204C93.4654 57.0887 91.1317 55.7121 88.7924 56.1069C86.9816 56.4128 85.8165 57.8434 85.5747 59.6147C85.5702 59.6477 85.5848 59.6642 85.6185 59.6642H93.4857C93.5149 59.6642 93.5291 59.6496 93.5284 59.6204Z" fill="#2B2D40"/>
<path d="M110.413 66.1164C108.921 67.8788 106.832 68.6627 104.564 68.3681C99.0135 67.6449 97.1476 60.7574 99.8502 56.5184C102.141 52.924 107.65 52.3695 110.432 55.775C110.435 55.7795 110.44 55.7828 110.445 55.7844C110.45 55.7861 110.456 55.786 110.461 55.7842C110.466 55.7824 110.47 55.779 110.473 55.7745C110.476 55.77 110.478 55.7647 110.477 55.7593L110.469 53.8035C110.469 53.7555 110.492 53.7315 110.54 53.7315H113.45C113.486 53.7315 113.504 53.7495 113.504 53.7855C113.517 58.8105 113.513 63.8349 113.494 68.8584C113.492 69.3653 113.4 69.9351 113.218 70.5679C112.272 73.8655 109.489 75.4479 106.137 75.3321C103.003 75.223 99.8041 73.771 99.3846 70.2811C99.3809 70.2511 99.3944 70.2361 99.4251 70.2361H102.23C102.268 70.2361 102.293 70.2534 102.308 70.2879C102.817 71.489 103.731 72.2482 105.05 72.5654C108.035 73.284 110.378 71.7623 110.456 68.6132C110.475 67.787 110.479 66.9611 110.467 66.1356C110.466 66.0808 110.448 66.0745 110.413 66.1164ZM103.267 64.7039C105.44 66.7013 108.992 65.8881 110.054 63.1304C111.076 60.4841 110.174 57.0234 107.149 56.2508C104.411 55.5512 102.103 57.471 101.77 60.1489C101.564 61.8011 101.995 63.5353 103.267 64.7039Z" fill="#2B2D40"/>
<path d="M119.563 62.1362C119.799 64.6105 121.737 66.139 124.222 65.8747C125.514 65.7367 126.454 65.0972 127.044 63.956C127.06 63.9252 127.086 63.9099 127.12 63.9099H130.236C130.271 63.9099 130.282 63.9264 130.27 63.9594C129.218 66.9319 126.648 68.4423 123.576 68.4288C120.011 68.4142 117.195 66.0906 116.594 62.5659C115.897 58.4642 117.73 54.5098 122.084 53.646C123.275 53.4099 124.464 53.4447 125.651 53.7506C129.492 54.7415 131.135 58.2977 130.6 62.035C130.598 62.0481 130.591 62.06 130.581 62.0687C130.571 62.0774 130.558 62.0822 130.545 62.0823H119.613C119.576 62.0823 119.56 62.1003 119.563 62.1362ZM127.551 59.6192C127.481 57.1011 125.177 55.7233 122.842 56.1012C121.021 56.3959 119.833 57.831 119.598 59.6158C119.594 59.6481 119.608 59.6642 119.641 59.6642H127.507C127.537 59.6642 127.552 59.6492 127.551 59.6192Z" fill="#2B2D40"/>
</g>
<defs>
<clipPath id="clip0_466_1837">
<rect width="175" height="82.3265" fill="white"/>
</clipPath>
</defs>
</svg>
