<svg width="50" height="50" viewBox="0 0 50 50" fill="none" xmlns="http://www.w3.org/2000/svg">
<circle cx="25" cy="25" r="25" transform="matrix(-1 0 0 1 50 0)" fill="white"/>
<path d="M22.7129 33.7501C22.8996 33.7507 23.0842 33.7095 23.2529 33.6295C23.4216 33.5494 23.5703 33.4326 23.6879 33.2876L29.7254 25.7876C29.9093 25.5639 30.0098 25.2834 30.0098 24.9939C30.0098 24.7043 29.9093 24.4238 29.7254 24.2001L23.4754 16.7001C23.2632 16.4448 22.9583 16.2843 22.6278 16.2538C22.2973 16.2233 21.9682 16.3254 21.7129 16.5376C21.4576 16.7498 21.2971 17.0547 21.2666 17.3852C21.2362 17.7157 21.3382 18.0448 21.5504 18.3001L27.1379 25.0001L21.7379 31.7001C21.5851 31.8836 21.488 32.107 21.4581 32.3439C21.4283 32.5809 21.4669 32.8214 21.5695 33.0371C21.672 33.2527 21.8342 33.4345 22.0369 33.5609C22.2395 33.6872 22.4741 33.7529 22.7129 33.7501Z" fill="#707070"/>
</svg>
